<?xml version="1.0" encoding="UTF-8" standalone="no"?>
<!-- Created with Inkscape (http://www.inkscape.org/) -->

<svg
   xmlns:dc="http://purl.org/dc/elements/1.1/"
   xmlns:cc="http://creativecommons.org/ns#"
   xmlns:rdf="http://www.w3.org/1999/02/22-rdf-syntax-ns#"
   xmlns:svg="http://www.w3.org/2000/svg"
   xmlns="http://www.w3.org/2000/svg"
   xmlns:sodipodi="http://sodipodi.sourceforge.net/DTD/sodipodi-0.dtd"
   xmlns:inkscape="http://www.inkscape.org/namespaces/inkscape"
   width="512"
   height="512"
   viewBox="0 0 135.46666 135.46667"
   version="1.1"
   id="svg8"
   inkscape:version="0.92.4 (5da689c313, 2019-01-14)"
   sodipodi:docname="controls.svg"
   inkscape:export-filename="C:\Users\coleh\Robotics_2020_2021\ControlsLanguagePlugin\src\main\resources\META-INF\controls-16.png"
   inkscape:export-xdpi="3.0000002"
   inkscape:export-ydpi="3.0000002">
  <defs
     id="defs2" />
  <sodipodi:namedview
     id="base"
     pagecolor="#ffffff"
     bordercolor="#666666"
     borderopacity="1.0"
     inkscape:pageopacity="0.0"
     inkscape:pageshadow="2"
     inkscape:zoom="1.4142136"
     inkscape:cx="282.2243"
     inkscape:cy="288.14982"
     inkscape:document-units="px"
     inkscape:current-layer="g4634"
     showgrid="true"
     units="px"
     inkscape:snap-bbox="true"
     inkscape:bbox-nodes="true"
     inkscape:snap-center="true"
     inkscape:snap-object-midpoints="true"
     inkscape:window-width="1920"
     inkscape:window-height="1017"
     inkscape:window-x="-8"
     inkscape:window-y="-8"
     inkscape:window-maximized="1"
     inkscape:pagecheckerboard="true"
     showguides="false">
    <inkscape:grid
       type="xygrid"
       id="grid4518"
       spacingx="4.2333333"
       spacingy="4.2333333"
       empspacing="4"
       enabled="false" />
  </sodipodi:namedview>
  <metadata
     id="metadata5">
    <rdf:RDF>
      <cc:Work
         rdf:about="">
        <dc:format>image/svg+xml</dc:format>
        <dc:type
           rdf:resource="http://purl.org/dc/dcmitype/StillImage" />
        <dc:title></dc:title>
      </cc:Work>
    </rdf:RDF>
  </metadata>
  <g
     inkscape:label="Layer 1"
     inkscape:groupmode="layer"
     id="layer1"
     transform="translate(0,-161.53332)">
    <g
       id="g4634"
       transform="matrix(1.0000152,0,0,1.0000152,-0.00102621,-0.00347993)"
       inkscape:transform-center-x="8.4465861"
       inkscape:transform-center-y="7.7231565e-06">
      <path
         inkscape:connector-curvature="0"
         style="opacity:1;fill:#5f6989;fill-opacity:1;stroke:none;stroke-width:22.71889877;stroke-linecap:round;stroke-linejoin:round;stroke-miterlimit:4;stroke-dasharray:none;stroke-opacity:1"
         d="M 327.71762,229.26897 A 218.10145,218.10145 0 0 1 109.61619,447.37045 218.10145,218.10145 0 0 1 -108.48526,229.26897 218.10145,218.10145 0 0 1 109.61619,11.167488 218.10145,218.10145 0 0 1 327.71762,229.26897 Z"
         id="path889" />
      <path
         style="opacity:1;fill:#eeeff3;fill-opacity:1;stroke:none;stroke-width:14.19904423;stroke-linecap:square;stroke-linejoin:miter;stroke-miterlimit:4;stroke-dasharray:none;stroke-opacity:1"
         d="M 374.66016 105.10742 L 317.35938 162.4082 A 112 112 0 0 1 335.39062 177.08008 L 391.90625 120.56445 A 191.99999 191.99999 0 0 0 374.66016 105.10742 z M 335.37305 334.90234 A 112 112 0 0 1 317.38672 349.61914 L 374.53516 406.76758 A 191.99999 191.99999 0 0 0 391.92383 391.45312 L 335.37305 334.90234 z "
         id="rect865"
         transform="matrix(0.26457931,0,0,0.26457931,0.00102619,161.53434)" />
      <path
         style="opacity:1;fill:#eeeff3;fill-opacity:1;stroke:none;stroke-width:13.33333206;stroke-linecap:round;stroke-linejoin:round;stroke-miterlimit:4;stroke-dasharray:none;stroke-opacity:1"
         d="M 256 128 A 127.99999 127.99999 0 0 0 128 256 A 127.99999 127.99999 0 0 0 256 384 A 127.99999 127.99999 0 0 0 346.69727 346.22656 L 335.37305 334.90234 A 112.00001 112.00001 0 0 1 256 368 A 112.00001 112.00001 0 0 1 144 256 A 112.00001 112.00001 0 0 1 256 144 A 112.00001 112.00001 0 0 1 335.39062 177.08008 L 346.67969 165.79102 A 127.99999 127.99999 0 0 0 256 128 z "
         transform="matrix(0.26457931,0,0,0.26457931,0.00102619,161.53434)"
         id="path845" />
      <path
         id="circle4537"
         d="M 88.899674,229.26665 A 21.166344,21.166344 0 0 1 67.73333,250.433 21.166344,21.166344 0 0 1 46.566986,229.26665 21.166344,21.166344 0 0 1 67.73333,208.1003 21.166344,21.166344 0 0 1 88.899674,229.26665 Z"
         style="opacity:1;fill:#9199b3;fill-opacity:1;stroke:none;stroke-width:2.20482755;stroke-linecap:round;stroke-linejoin:round;stroke-miterlimit:4;stroke-dasharray:none;stroke-opacity:1"
         inkscape:connector-curvature="0" />
      <path
         inkscape:transform-center-y="-38.741183"
         inkscape:transform-center-x="0.0025574668"
         sodipodi:nodetypes="cccccc"
         style="opacity:1;fill:#ebea59;fill-opacity:1;stroke:none;stroke-width:5.29166651;stroke-linecap:round;stroke-linejoin:round;stroke-miterlimit:4;stroke-dasharray:none;stroke-opacity:1"
         d="m 34.950429,190.49691 12.039448,12.03945 c 12.210781,-9.45571 29.272015,-9.45283 41.479604,0.007 l 12.041639,-12.04164 c -18.92784,-15.99029 -46.630412,-15.99241 -65.560691,-0.005 z"
         id="path4586"
         inkscape:connector-curvature="0" />
      <path
         inkscape:connector-curvature="0"
         id="path4588"
         d="m 28.963589,262.04956 12.03945,-12.03945 c -9.45571,-12.21078 -9.45283,-29.27202 0.007,-41.47961 l -12.04164,-12.04164 c -15.99029,18.92784 -15.99241,46.63042 -0.005,65.5607 z"
         style="opacity:1;fill:#597ceb;fill-opacity:1;stroke:none;stroke-width:5.29166651;stroke-linecap:round;stroke-linejoin:round;stroke-miterlimit:4;stroke-dasharray:none;stroke-opacity:1"
         sodipodi:nodetypes="cccccc"
         inkscape:transform-center-x="38.741183"
         inkscape:transform-center-y="0.0025572543" />
      <path
         inkscape:transform-center-y="38.741188"
         inkscape:transform-center-x="-0.0025577543"
         sodipodi:nodetypes="cccccc"
         style="opacity:1;fill:#95eb59;fill-opacity:1;stroke:none;stroke-width:5.29166651;stroke-linecap:round;stroke-linejoin:round;stroke-miterlimit:4;stroke-dasharray:none;stroke-opacity:1"
         d="M 100.51624,268.0364 88.476789,255.99695 c -12.21078,9.45571 -29.27202,9.45283 -41.47961,-0.007 l -12.04164,12.04164 c 18.92784,15.99029 46.63042,15.99241 65.560701,0.005 z"
         id="path4590"
         inkscape:connector-curvature="0" />
      <path
         inkscape:connector-curvature="0"
         id="path855"
         d="m 34.950429,190.49691 12.039448,12.03945 c 12.210781,-9.45571 29.272015,-9.45283 41.479604,0.007 l 12.041639,-12.04164 c -18.92784,-15.99029 -46.630412,-15.99241 -65.560691,-0.005 z"
         style="opacity:1;fill:#ebea59;fill-opacity:1;stroke:none;stroke-width:5.29166651;stroke-linecap:round;stroke-linejoin:round;stroke-miterlimit:4;stroke-dasharray:none;stroke-opacity:1"
         sodipodi:nodetypes="cccccc"
         inkscape:transform-center-x="0.0025574668"
         inkscape:transform-center-y="-38.741183" />
      <path
         style="opacity:1;fill:#eeeff3;fill-opacity:1;stroke:none;stroke-width:20;stroke-linecap:round;stroke-linejoin:round;stroke-miterlimit:4;stroke-dasharray:none;stroke-opacity:1"
         d="M 391.90625 120.56445 L 380.61719 131.85352 A 176 176 0 0 1 432 256 A 176 176 0 0 1 380.59961 380.12891 L 391.92383 391.45312 A 192 192 0 0 0 448 256 A 192 192 0 0 0 391.90625 120.56445 z "
         id="path847"
         transform="matrix(0.26457931,0,0,0.26457931,0.00102619,161.53434)" />
      <path
         style="fill:none;stroke:#000000;stroke-width:0.2645793px;stroke-linecap:butt;stroke-linejoin:miter;stroke-opacity:1"
         d="m 28.968399,196.48885 5.98203,-5.99213"
         id="path893"
         inkscape:connector-curvature="0" />
      <ellipse
         style="opacity:1;fill:#c6a07e;fill-opacity:1;stroke:none;stroke-width:6.70595694;stroke-linecap:square;stroke-linejoin:miter;stroke-miterlimit:4;stroke-dasharray:none;stroke-opacity:1"
         id="path895"
         cx="31.959414"
         cy="190.49666"
         rx="5.9820824"
         ry="5.9921923" />
    </g>
  </g>
</svg>
