<?xml version="1.0" encoding="UTF-8" standalone="no"?>
<!-- Created with Inkscape (http://www.inkscape.org/) -->

<svg
   xmlns:dc="http://purl.org/dc/elements/1.1/"
   xmlns:cc="http://creativecommons.org/ns#"
   xmlns:rdf="http://www.w3.org/1999/02/22-rdf-syntax-ns#"
   xmlns:svg="http://www.w3.org/2000/svg"
   xmlns="http://www.w3.org/2000/svg"
   xmlns:sodipodi="http://sodipodi.sourceforge.net/DTD/sodipodi-0.dtd"
   xmlns:inkscape="http://www.inkscape.org/namespaces/inkscape"
   width="512"
   height="512"
   viewBox="0 0 135.46666 135.46667"
   version="1.1"
   id="svg8"
   inkscape:version="0.92.4 (5da689c313, 2019-01-14)"
   sodipodi:docname="controls.svg"
   inkscape:export-filename="C:\Users\coleh\Robotics_2020_2021\ControlsLanguagePlugin\src\main\resources\META-INF\controls-16.png"
   inkscape:export-xdpi="3.0000002"
   inkscape:export-ydpi="3.0000002">
  <defs
     id="defs2" />
  <sodipodi:namedview
     id="base"
     pagecolor="#ffffff"
     bordercolor="#666666"
     borderopacity="1.0"
     inkscape:pageopacity="0.0"
     inkscape:pageshadow="2"
     inkscape:zoom="1.2333984"
     inkscape:cx="188.52082"
     inkscape:cy="224.60725"
     inkscape:document-units="px"
     inkscape:current-layer="layer1"
     showgrid="true"
     units="px"
     inkscape:snap-bbox="true"
     inkscape:bbox-nodes="true"
     inkscape:snap-center="true"
     inkscape:snap-object-midpoints="true"
     inkscape:window-width="1920"
     inkscape:window-height="1017"
     inkscape:window-x="-8"
     inkscape:window-y="-8"
     inkscape:window-maximized="1">
    <inkscape:grid
       type="xygrid"
       id="grid4518"
       spacingx="4.2333333"
       spacingy="4.2333333"
       empspacing="4"
       enabled="true" />
  </sodipodi:namedview>
  <metadata
     id="metadata5">
    <rdf:RDF>
      <cc:Work
         rdf:about="">
        <dc:format>image/svg+xml</dc:format>
        <dc:type
           rdf:resource="http://purl.org/dc/dcmitype/StillImage" />
        <dc:title></dc:title>
      </cc:Work>
    </rdf:RDF>
  </metadata>
  <g
     inkscape:label="Layer 1"
     inkscape:groupmode="layer"
     id="layer1"
     transform="translate(0,-161.53332)">
    <g
       id="g4634"
       transform="matrix(1.1676074,0,0,1.1676074,-9.9369187,-38.426789)">
      <path
         inkscape:connector-curvature="0"
         id="path4619"
         d="m 67.732298,197.15595 c -17.733341,0 -32.109669,14.37852 -32.109666,32.11174 -3e-6,17.73319 14.376455,32.10966 32.109666,32.10966 6.731174,0 12.974412,-2.08894 18.135846,-5.62601 l 1.283123,1.28313 1.111044,-0.84905 c 0.01472,-0.0112 0.07372,-0.0521 0.172601,-0.12867 l 1.434536,-1.11001 -4.528404,-4.52841 -1.108978,0.83251 c -4.593142,3.45017 -10.29495,5.49269 -16.499768,5.49269 -15.215499,0 -27.475844,-12.26035 -27.475841,-27.47584 -3e-6,-15.21552 12.260477,-27.47791 27.475841,-27.47791 6.204506,0 11.90616,2.04287 16.499252,5.4932 l 1.108978,0.83251 4.527888,-4.52841 -1.434023,-1.11001 c -0.099,-0.0767 -0.158009,-0.11752 -0.172598,-0.12867 l -1.111044,-0.84905 -1.283126,1.28313 c -5.161304,-3.53722 -11.404319,-5.62653 -18.135327,-5.62653 z"
         style="color:#000000;font-style:normal;font-variant:normal;font-weight:normal;font-stretch:normal;font-size:medium;line-height:normal;font-family:sans-serif;font-variant-ligatures:normal;font-variant-position:normal;font-variant-caps:normal;font-variant-numeric:normal;font-variant-alternates:normal;font-feature-settings:normal;text-indent:0;text-align:start;text-decoration:none;text-decoration-line:none;text-decoration-style:solid;text-decoration-color:#000000;letter-spacing:normal;word-spacing:normal;text-transform:none;writing-mode:lr-tb;direction:ltr;text-orientation:mixed;dominant-baseline:auto;baseline-shift:baseline;text-anchor:start;white-space:normal;shape-padding:0;clip-rule:nonzero;display:inline;overflow:visible;visibility:visible;opacity:1;isolation:auto;mix-blend-mode:normal;color-interpolation:sRGB;color-interpolation-filters:linearRGB;solid-color:#000000;solid-opacity:1;vector-effect:none;fill:#cacbd0;fill-opacity:1;fill-rule:nonzero;stroke:none;stroke-width:3.19484544;stroke-linecap:square;stroke-linejoin:miter;stroke-miterlimit:4;stroke-dasharray:none;stroke-dashoffset:0;stroke-opacity:1;color-rendering:auto;image-rendering:auto;shape-rendering:auto;text-rendering:auto;enable-background:accumulate" />
      <path
         id="circle4537"
         d="M 84.666668,229.26665 A 16.933338,16.933338 0 0 1 67.73333,246.19999 16.933338,16.933338 0 0 1 50.799992,229.26665 16.933338,16.933338 0 0 1 67.73333,212.33331 16.933338,16.933338 0 0 1 84.666668,229.26665 Z"
         style="opacity:1;fill:#9199b3;fill-opacity:1;stroke:none;stroke-width:1.76388931;stroke-linecap:round;stroke-linejoin:round;stroke-miterlimit:4;stroke-dasharray:none;stroke-opacity:1"
         inkscape:connector-curvature="0" />
      <path
         inkscape:transform-center-y="-38.741183"
         inkscape:transform-center-x="0.0025574668"
         sodipodi:nodetypes="cccccc"
         style="opacity:1;fill:#ebea59;fill-opacity:1;stroke:none;stroke-width:5.29166651;stroke-linecap:round;stroke-linejoin:round;stroke-miterlimit:4;stroke-dasharray:none;stroke-opacity:1"
         d="m 34.950429,190.49691 12.039448,12.03945 c 12.210781,-9.45571 29.272015,-9.45283 41.479604,0.007 l 12.041639,-12.04164 c -18.92784,-15.99029 -46.630412,-15.99241 -65.560691,-0.005 z"
         id="path4586"
         inkscape:connector-curvature="0" />
      <path
         inkscape:connector-curvature="0"
         id="path4588"
         d="m 28.963589,262.04956 12.03945,-12.03945 c -9.45571,-12.21078 -9.45283,-29.27202 0.007,-41.47961 l -12.04164,-12.04164 c -15.99029,18.92784 -15.99241,46.63042 -0.005,65.5607 z"
         style="opacity:1;fill:#597ceb;fill-opacity:1;stroke:none;stroke-width:5.29166651;stroke-linecap:round;stroke-linejoin:round;stroke-miterlimit:4;stroke-dasharray:none;stroke-opacity:1"
         sodipodi:nodetypes="cccccc"
         inkscape:transform-center-x="38.741183"
         inkscape:transform-center-y="0.0025572543" />
      <path
         inkscape:transform-center-y="38.741188"
         inkscape:transform-center-x="-0.0025577543"
         sodipodi:nodetypes="cccccc"
         style="opacity:1;fill:#95eb59;fill-opacity:1;stroke:none;stroke-width:5.29166651;stroke-linecap:round;stroke-linejoin:round;stroke-miterlimit:4;stroke-dasharray:none;stroke-opacity:1"
         d="M 100.51624,268.0364 88.476789,255.99695 c -12.21078,9.45571 -29.27202,9.45283 -41.47961,-0.007 l -12.04164,12.04164 c 18.92784,15.99029 46.63042,15.99241 65.560701,0.005 z"
         id="path4590"
         inkscape:connector-curvature="0" />
      <path
         transform="matrix(0.26458333,0,0,0.26458333,0,161.53332)"
         id="rect4604"
         d="m 334.23438,154.74609 -8.98633,8.98633 c 27.99199,21.02755 46.07617,54.50731 46.07617,92.27149 0,37.76321 -18.08342,71.24007 -46.07422,92.26562 l 8.98633,8.98633 c 30.25589,-23.4238 49.76172,-60.08519 49.76172,-101.25195 0,-41.16735 -19.50709,-77.83196 -49.76367,-101.25782 z"
         style="opacity:1;fill:#c9cbd0;fill-opacity:0.95294118;stroke:none;stroke-width:20;stroke-linecap:round;stroke-linejoin:round;stroke-miterlimit:4;stroke-dasharray:none;stroke-opacity:1"
         inkscape:connector-curvature="0" />
    </g>
  </g>
</svg>
